 <svg  version="1.0" xmlns="http://www.w3.org/2000/svg"  width="230.000000pt" height="238.000000pt" viewBox="0 0 230.000000 238.000000"  preserveAspectRatio="xMidYMid meet">  <g transform="translate(0.000000,238.000000) scale(0.100000,-0.100000)" fill="#3dc772" stroke="none"> <path d="M1140 2090 c0 -43 3 -50 20 -50 17 0 20 7 20 50 0 43 -3 50 -20 50 -17 0 -20 -7 -20 -50z"/> <path d="M935 2076 c-17 -12 -17 -15 6 -53 21 -36 27 -40 42 -28 16 12 16 15 -6 54 -21 37 -25 39 -42 27z"/> <path d="M1341 2054 c-25 -43 -26 -50 -4 -58 17 -7 23 -1 48 45 12 22 12 26 -5 37 -16 10 -21 6 -39 -24z"/> <path d="M1082 1970 c-36 -36 -47 -76 -32 -116 14 -35 49 -74 67 -74 8 0 13 -12 13 -32 0 -26 -6 -37 -31 -50 -26 -15 -57 -18 -204 -18 -105 0 -184 -4 -198 -11 -32 -14 -57 -69 -57 -123 l0 -43 -55 -13 -55 -13 0 -132 0 -132 55 -18 c53 -19 55 -20 55 -56 0 -96 38 -132 141 -130 l69 1 0 -33 c0 -28 -6 -35 -50 -59 -55 -31 -113 -102 -132 -161 -8 -25 -21 -43 -41 -53 -17 -9 -36 -33 -47 -57 l-19 -42 38 -3 c31 -2 44 2 65 23 22 22 30 24 41 15 8 -7 15 -19 15 -26 0 -10 13 -14 45 -14 31 0 45 4 45 14 0 21 -44 80 -68 91 -12 5 -22 12 -22 15 0 18 70 117 98 138 l32 25 0 -132 0 -131 313 0 312 0 -3 120 c-4 141 -22 163 -22 26 0 -72 -4 -97 -15 -106 -22 -18 -528 -20 -547 -2 -8 8 -14 50 -16 112 -4 84 -7 103 -23 114 -19 13 -19 13 1 31 13 12 20 31 20 55 0 44 -26 60 -96 60 -25 0 -54 5 -66 11 -23 13 -48 67 -48 107 0 16 -9 37 -19 46 -19 17 -19 18 0 37 16 16 19 34 19 114 0 83 -2 96 -20 107 -18 11 -18 14 -3 30 9 10 20 42 24 70 6 40 16 60 39 81 l30 27 176 0 c179 0 198 3 240 42 22 19 22 19 35 0 27 -37 53 -42 229 -42 135 0 177 -3 201 -15 33 -18 49 -50 49 -101 0 -21 8 -42 21 -55 17 -17 18 -23 8 -29 -9 -6 -6 -12 14 -21 26 -12 27 -14 27 -101 0 -48 -4 -88 -9 -88 -5 0 -16 -3 -25 -6 -14 -5 -16 7 -16 96 0 65 -4 99 -10 95 -5 -3 -10 -46 -10 -94 0 -75 3 -91 20 -106 19 -17 19 -18 0 -43 -12 -15 -20 -40 -20 -64 0 -30 -7 -46 -29 -69 -25 -24 -38 -29 -80 -29 -70 0 -101 -16 -101 -52 0 -16 7 -39 15 -52 9 -13 14 -28 13 -33 -2 -5 12 -23 31 -39 35 -29 91 -109 91 -129 0 -7 -11 -17 -24 -23 -26 -12 -50 -42 -61 -79 -6 -22 -3 -23 39 -23 34 0 46 4 46 15 0 21 32 35 53 24 9 -6 17 -17 17 -24 0 -11 12 -15 46 -15 42 0 45 2 39 23 -10 34 -39 71 -68 85 -15 7 -27 21 -27 30 0 27 -56 117 -92 147 -18 15 -47 34 -65 43 -28 13 -33 21 -33 50 l0 33 48 -1 c90 -3 103 0 133 29 25 25 29 37 29 83 l0 54 55 18 55 17 0 133 0 133 -52 15 -53 15 -3 49 c-6 113 -28 124 -256 124 -148 0 -179 3 -205 18 -24 13 -31 24 -31 48 0 26 5 33 25 38 31 8 65 60 65 99 0 36 -23 81 -52 101 -13 9 -43 16 -69 16 -39 0 -53 -5 -77 -30z m129 -13 c51 -39 47 -96 -11 -150 l-38 -37 -33 27 c-60 51 -70 122 -21 159 21 17 82 17 103 1z m-575 -714 c-2 -3 -13 0 -23 5 -16 9 -19 22 -18 93 2 68 5 84 21 96 18 13 19 10 22 -88 1 -56 1 -104 -2 -106z m1072 -595 c2 -4 -13 -1 -34 8 -35 15 -41 14 -72 0 -47 -23 -53 -11 -14 25 18 16 32 35 32 41 0 10 82 -58 88 -74z m-980 39 c38 -39 34 -51 -10 -30 -27 14 -34 14 -65 -1 -42 -20 -54 -15 -23 11 13 10 30 26 39 36 21 23 22 22 59 -16z"/> <path d="M722 1608 c-17 -17 -17 -509 0 -526 9 -9 121 -12 445 -12 417 0 433 1 443 19 6 12 10 113 10 260 0 204 -2 242 -16 255 -14 14 -68 16 -443 16 -319 0 -430 -3 -439 -12z m856 -102 l3 -69 -42 37 c-51 47 -96 66 -151 66 -111 -1 -208 -98 -208 -210 0 -82 48 -153 133 -196 26 -13 47 -25 47 -27 0 -5 -590 1 -605 6 -11 5 -15 20 -15 55 0 27 3 52 6 55 4 3 22 -9 40 -27 45 -45 92 -66 149 -66 87 0 175 69 201 157 14 48 14 58 0 106 -27 94 -108 157 -201 157 -57 0 -100 -18 -144 -59 -18 -17 -37 -31 -42 -31 -10 0 -12 80 -3 104 6 15 49 16 418 14 l411 -3 3 -69z m-565 0 c68 -28 115 -118 102 -196 -8 -49 -56 -113 -99 -134 -47 -22 -123 -21 -162 3 -125 76 -125 246 1 322 36 23 112 25 158 5z m444 -7 c62 -23 113 -99 113 -169 0 -73 -63 -160 -126 -176 -42 -11 -124 2 -152 23 -142 105 -78 332 95 333 23 0 54 -5 70 -11z m116 -379 c-11 -10 -163 -20 -163 -10 0 4 17 12 39 18 21 7 58 30 82 51 l44 39 3 -45 c2 -25 0 -49 -5 -53z"/> <path d="M857 1478 c-43 -26 -78 -88 -76 -139 1 -30 2 -28 9 14 10 59 31 92 73 117 64 40 149 18 200 -51 27 -37 27 -121 0 -158 -38 -50 -83 -73 -136 -68 -56 5 -92 29 -118 77 -11 19 -19 27 -19 18 0 -22 46 -75 81 -93 69 -36 169 -5 208 65 80 142 -80 300 -222 218z"/> <path d="M900 1415 c0 -14 8 -34 17 -45 16 -18 18 -18 35 -3 10 9 18 29 18 45 0 25 -3 28 -35 28 -31 0 -35 -3 -35 -25z"/> <path d="M830 1335 c0 -32 3 -35 28 -35 16 0 36 8 46 18 15 18 15 20 -2 35 -10 10 -31 17 -45 17 -24 0 -27 -4 -27 -35z"/> <path d="M969 1354 c-19 -23 1 -48 40 -52 30 -3 31 -2 31 32 0 33 -2 36 -29 36 -16 0 -34 -7 -42 -16z"/> <path d="M917 1302 c-10 -10 -17 -31 -17 -45 0 -24 4 -27 35 -27 32 0 35 3 35 28 0 16 -8 36 -18 46 -18 15 -20 15 -35 -2z"/> <path d="M1390 1482 c61 -10 104 -38 129 -82 26 -47 27 -82 1 -135 -47 -97 -189 -115 -244 -30 -10 15 -20 24 -24 21 -8 -8 37 -55 70 -72 15 -8 46 -14 68 -14 93 0 162 68 162 158 0 95 -56 154 -151 158 -54 3 -55 3 -11 -4z"/> <path d="M1285 1449 c-19 -17 -35 -36 -35 -43 0 -6 7 -3 15 7 7 10 28 30 46 43 18 13 28 24 21 24 -6 0 -27 -14 -47 -31z"/> <path d="M1355 1419 c-10 -30 18 -58 43 -43 9 6 17 22 17 35 0 34 -50 41 -60 8z"/> <path d="M1293 1364 c-18 -8 -16 -39 3 -55 21 -17 49 0 49 32 0 24 -24 34 -52 23z"/> <path d="M1432 1358 c-26 -26 1 -65 38 -53 16 5 20 14 18 33 -3 30 -35 41 -56 20z"/> <path d="M1360 1285 c-18 -22 -1 -50 31 -50 20 0 24 5 24 30 0 23 -5 31 -21 33 -11 2 -27 -4 -34 -13z"/> <path d="M920 835 l0 -144 245 -3 245 -3 0 148 0 147 -245 0 -245 0 0 -145z m420 95 c12 -7 11 -9 -5 -9 -27 1 -53 -6 -61 -14 -8 -8 -34 11 -34 24 0 12 81 11 100 -1z m-100 -100 l0 -80 -145 3 -145 2 0 78 0 77 145 0 145 0 0 -80z m127 48 c28 -26 30 -61 3 -88 -41 -41 -100 -16 -100 42 0 62 53 87 97 46z m-29 -130 c12 1 22 -2 22 -6 0 -5 -16 -9 -35 -10 -20 -1 -40 -4 -45 -7 -15 -9 -39 6 -33 21 4 11 14 13 37 8 17 -4 41 -7 54 -6z"/> <path d="M990 833 l0 -33 106 0 105 0 -3 31 -3 31 -103 1 -102 2 0 -32z"/> <path d="M1314 846 c-9 -24 12 -44 28 -28 10 10 8 16 -5 29 -15 15 -17 15 -23 -1z"/> </g> </svg> 