 <svg  version="1.0" xmlns="http://www.w3.org/2000/svg"  width="300.000000pt" height="299.000000pt" viewBox="0 0 300.000000 299.000000"  preserveAspectRatio="xMidYMid meet">  <g transform="translate(0.000000,299.000000) scale(0.100000,-0.100000)" fill="#50c377" stroke="none"> <path d="M1475 2470 c0 -32 3 -40 17 -40 14 0 18 8 18 40 0 32 -4 40 -18 40 -14 0 -17 -8 -17 -40z"/> <path d="M1300 2460 c-12 -8 -12 -14 3 -44 17 -37 34 -46 43 -22 8 22 -29 76 -46 66z"/> <path d="M1651 2434 c-18 -29 -19 -39 -9 -45 19 -13 21 -12 41 23 15 27 16 33 4 45 -12 12 -17 9 -36 -23z"/> <path d="M1425 2360 c-21 -22 -29 -39 -28 -65 1 -41 27 -85 54 -92 29 -8 25 -57 -6 -77 -20 -13 -54 -16 -182 -16 -125 0 -163 -3 -180 -15 -24 -17 -45 -70 -41 -106 3 -21 -3 -26 -44 -39 l-48 -15 0 -115 0 -115 48 -16 c40 -13 47 -19 44 -39 -4 -35 17 -88 41 -105 14 -9 45 -15 84 -15 l63 0 0 -30 c0 -24 -6 -32 -32 -43 -46 -19 -114 -97 -129 -146 -7 -23 -18 -41 -25 -41 -18 0 -64 -58 -64 -81 0 -27 60 -27 78 1 16 26 49 26 57 0 9 -30 75 -29 75 1 0 21 -44 72 -69 80 -18 6 37 96 77 126 16 12 29 27 29 35 1 7 7 28 15 46 12 32 11 35 -11 53 -16 13 -39 19 -72 19 -36 0 -53 5 -67 21 -18 18 -43 100 -43 141 0 9 -11 19 -25 22 -24 6 -25 9 -22 84 3 65 6 78 23 87 11 5 21 17 22 25 8 57 28 118 45 137 19 20 31 22 183 25 146 3 166 5 192 24 l28 20 40 -23 c37 -21 52 -23 190 -23 168 0 189 -6 200 -63 15 -77 30 -117 47 -123 15 -4 18 -17 18 -84 0 -66 -3 -80 -18 -84 -18 -6 -42 -68 -42 -110 0 -14 -10 -36 -22 -50 -18 -20 -35 -26 -81 -30 -33 -3 -62 -7 -65 -10 -7 -8 122 -8 143 0 24 9 45 58 45 102 0 38 1 40 45 52 l45 13 0 116 0 117 -45 12 c-44 12 -45 13 -45 53 0 43 -14 77 -39 96 -11 9 -65 12 -172 13 -181 0 -219 11 -219 61 0 18 5 29 14 29 8 0 26 14 40 31 36 42 35 88 -3 128 -24 26 -37 31 -73 31 -36 0 -50 -6 -73 -30z m119 -16 c9 -8 16 -18 17 -22 0 -4 2 -17 5 -29 4 -23 -47 -93 -68 -93 -5 0 -23 12 -39 27 -56 53 -30 133 43 133 14 0 34 -7 42 -16z m-432 -1093 c16 -19 15 -20 -27 -18 l-44 1 27 18 c15 10 27 18 27 18 0 0 8 -9 17 -19z"/> <path d="M1112 2048 c-17 -17 -17 -439 0 -456 9 -9 107 -12 379 -12 202 0 374 3 383 6 14 5 16 35 16 234 0 199 -2 229 -16 234 -9 3 -181 6 -383 6 -272 0 -370 -3 -379 -12z m163 -38 c-3 -5 -12 -10 -19 -10 -8 0 -37 -16 -65 -35 l-51 -35 0 38 c0 21 3 42 7 45 11 11 135 8 128 -3z m573 -2 c12 -12 17 -70 6 -81 -3 -3 -26 10 -51 29 -42 32 -53 36 -114 36 -75 1 -154 -61 -178 -142 -19 -63 0 -114 64 -177 l53 -51 -136 -4 c-76 -2 -150 0 -167 3 -24 6 -25 7 -7 8 37 2 99 38 125 73 81 110 41 237 -93 297 l-45 20 266 0 c193 1 268 -2 277 -11z m-468 -60 c56 -39 75 -73 74 -134 -1 -121 -123 -192 -228 -131 -134 76 -80 287 74 287 32 0 57 -7 80 -22z m401 -11 c49 -33 71 -81 65 -143 -5 -61 -17 -83 -60 -111 -98 -65 -224 -12 -241 101 -10 62 24 133 75 158 50 25 119 23 161 -5z m-607 -256 c9 -10 35 -27 57 -37 50 -22 32 -33 -39 -24 -46 5 -47 6 -50 43 -4 41 6 47 32 18z m686 -13 c0 -13 -4 -28 -8 -35 -8 -12 -77 -22 -87 -12 -5 6 74 68 88 69 4 0 7 -10 7 -22z"/> <path d="M1365 1931 c43 -26 65 -64 65 -113 0 -50 -30 -99 -75 -122 -16 -8 -25 -15 -20 -15 18 -1 74 38 91 64 37 57 12 160 -46 190 -41 21 -51 19 -15 -4z"/> <path d="M1270 1883 c0 -10 7 -27 15 -37 12 -16 17 -17 30 -6 8 7 15 23 15 36 0 20 -5 24 -30 24 -22 0 -30 -5 -30 -17z"/> <path d="M1365 1843 c-38 -10 -47 -24 -29 -44 10 -11 25 -19 36 -19 14 0 18 8 18 35 0 19 -1 34 -2 34 -2 -1 -12 -4 -23 -6z"/> <path d="M1210 1810 c0 -25 4 -30 23 -30 32 0 61 32 45 48 -7 7 -25 12 -40 12 -24 0 -28 -4 -28 -30z"/> <path d="M1287 1782 c-10 -10 -17 -28 -17 -40 0 -18 6 -22 30 -22 26 0 30 3 30 29 0 40 -22 56 -43 33z"/> <path d="M1761 1917 c76 -50 86 -137 22 -202 -18 -19 -30 -35 -25 -35 11 0 57 49 71 77 15 30 14 79 -4 113 -17 33 -61 70 -83 70 -8 0 0 -10 19 -23z"/> <path d="M1663 1884 c-8 -21 19 -46 40 -38 9 3 17 17 17 30 0 19 -5 24 -25 24 -14 0 -28 -7 -32 -16z"/> <path d="M1735 1834 c-19 -19 -19 -28 0 -44 21 -17 45 -5 45 24 0 29 -24 40 -45 20z"/> <path d="M1604 1825 c-4 -9 0 -23 8 -31 20 -20 50 -7 46 20 -4 26 -45 35 -54 11z"/> <path d="M1663 1764 c-3 -8 1 -23 10 -31 21 -21 47 -9 47 22 0 20 -5 25 -25 25 -14 0 -28 -7 -32 -16z"/> <path d="M1045 1858 c-6 -40 0 -107 11 -117 2 -2 4 32 4 77 0 45 -2 82 -4 82 -3 0 -8 -19 -11 -42z"/> <path d="M1930 1822 c0 -53 4 -81 10 -77 13 8 13 125 0 145 -7 10 -10 -11 -10 -68z"/> <path d="M1751 1504 c-2 -30 23 -86 50 -109 23 -20 79 -103 79 -116 0 -4 -9 -11 -20 -14 -22 -7 -44 -36 -55 -72 -6 -21 -3 -23 29 -23 25 0 38 6 46 20 6 11 20 20 31 20 12 0 23 -8 26 -20 4 -16 14 -20 44 -20 22 0 39 2 39 5 0 25 -34 77 -58 89 -20 10 -33 26 -37 45 -10 47 -61 109 -115 139 -35 19 -50 34 -53 52 -3 21 -4 21 -6 4z m186 -260 c19 -18 21 -23 8 -17 -11 6 -33 9 -49 7 -27 -3 -28 -2 -10 17 9 10 18 19 20 19 2 0 16 -12 31 -26z"/> <path d="M1284 1375 l-1 -125 213 0 214 0 0 125 0 125 -212 0 -213 0 -1 -125z m281 -2 c-1 -37 -4 -67 -8 -65 -4 1 -61 2 -127 2 l-120 0 0 65 0 64 123 3 c67 2 125 2 128 1 3 -1 5 -33 4 -70z m113 45 c7 -7 12 -27 12 -45 0 -26 -6 -36 -25 -45 -55 -25 -95 26 -65 83 12 22 59 26 78 7z"/> <path d="M1350 1378 l0 -28 90 0 c89 0 90 0 90 24 0 24 -2 25 -90 28 l-90 3 0 -27z"/> <path d="M1230 1303 l0 -113 270 0 270 0 -1 83 c-1 121 -14 152 -21 49 -2 -45 -10 -88 -17 -95 -9 -9 -74 -12 -237 -12 -189 0 -226 2 -234 15 -5 8 -10 47 -10 85 0 39 -5 77 -10 85 -7 10 -10 -21 -10 -97z"/> <path d="M430 974 c-13 -37 -29 -78 -36 -93 -19 -36 -17 -51 6 -51 13 0 22 9 26 25 5 21 12 25 43 25 31 0 40 -5 49 -25 12 -25 36 -33 47 -15 3 5 1 17 -4 27 -16 27 -61 148 -61 161 0 7 -11 12 -24 12 -21 0 -27 -9 -46 -66z m70 -51 c0 -7 -11 -13 -25 -13 -28 0 -30 4 -13 51 l12 34 12 -30 c7 -17 13 -36 14 -42z"/> <path d="M590 945 c0 -83 2 -96 20 -105 23 -13 110 -11 128 3 8 6 12 40 12 103 0 87 -1 94 -20 94 -18 0 -20 -7 -20 -85 l0 -85 -41 0 -41 0 3 85 c4 83 3 85 -18 85 -22 0 -23 -3 -23 -95z"/> <path d="M780 1025 c0 -10 10 -15 31 -15 l31 0 -3 -87 c-3 -84 -3 -88 19 -91 21 -3 22 -1 22 87 0 90 0 91 25 91 16 0 25 6 25 15 0 12 -15 15 -75 15 -60 0 -75 -3 -75 -15z"/> <path d="M983 1032 c-17 -11 -21 -166 -4 -186 16 -19 111 -22 129 -4 7 7 12 45 12 99 0 70 -3 88 -16 93 -22 8 -107 7 -121 -2z m107 -92 l0 -70 -40 0 -40 0 0 70 0 70 40 0 40 0 0 -70z"/> <path d="M1166 937 c1 -86 4 -103 18 -105 14 -3 16 8 17 75 l1 78 25 -78 c22 -66 29 -78 46 -75 11 2 22 12 23 23 2 11 12 43 23 70 l20 50 1 -72 c0 -66 2 -73 20 -73 19 0 20 7 20 105 l0 105 -29 0 c-28 0 -31 -4 -52 -75 -12 -42 -25 -72 -29 -68 -6 7 -35 90 -46 131 -2 6 -16 12 -31 12 l-28 0 1 -103z"/> <path d="M1482 1023 c-12 -22 -62 -172 -62 -184 0 -20 31 -7 40 16 8 21 16 25 48 25 32 0 41 -5 50 -25 6 -14 18 -25 27 -25 19 0 19 7 -4 66 -10 27 -25 69 -33 94 -16 50 -49 66 -66 33z m38 -50 c0 -10 3 -28 6 -40 5 -20 2 -23 -20 -23 -30 0 -30 2 -14 47 13 36 28 44 28 16z"/> <path d="M1610 1025 c0 -9 9 -15 25 -15 25 0 25 -1 25 -91 0 -87 1 -90 22 -87 20 3 21 8 19 91 l-2 87 30 0 c21 0 31 5 31 15 0 12 -15 15 -75 15 -60 0 -75 -3 -75 -15z"/> <path d="M1790 937 l0 -103 60 -1 c53 -1 60 1 60 18 0 15 -7 19 -40 19 -36 0 -40 3 -40 25 0 22 4 25 36 25 28 0 35 3 32 18 -3 12 -12 16 -36 14 -29 -2 -32 0 -32 28 0 28 2 30 40 30 29 0 40 4 40 15 0 12 -13 15 -60 15 l-60 0 0 -103z"/> <path d="M1950 937 l0 -103 62 -2 c33 -1 67 3 75 9 9 8 13 38 13 99 0 101 1 100 -91 100 l-59 0 0 -103z m120 3 l0 -70 -40 0 -40 0 0 70 0 70 40 0 40 0 0 -70z"/> <path d="M2291 975 c-12 -36 -29 -77 -37 -93 -19 -37 -18 -52 6 -52 13 0 24 10 30 25 8 20 16 25 43 25 26 0 36 -6 45 -25 7 -15 20 -25 32 -25 26 0 26 2 -13 95 -36 86 -37 90 -37 105 0 6 -11 10 -24 10 -20 0 -27 -10 -45 -65z m69 -52 c0 -7 -11 -13 -25 -13 -28 0 -30 4 -13 51 l12 34 12 -30 c7 -17 13 -36 14 -42z"/> <path d="M2460 934 c0 -102 1 -105 21 -102 20 3 21 9 23 106 1 100 0 102 -21 102 -22 0 -23 -3 -23 -106z"/> </g> </svg> 